<svg width="13" height="14" viewBox="0 0 13 14" fill="none" xmlns="http://www.w3.org/2000/svg">
<path d="M7.72507 4.48056L8.04594 4.80285C8.04594 4.80285 8.80811 5.56998 6.72703 7.6631C4.64594 9.75623 3.88378 8.9891 3.88378 8.9891L3.68119 8.78652C3.18394 8.28573 2.38494 8.23827 1.80128 8.67531L0.609152 9.56781C-0.113348 10.109 -0.208973 11.1538 0.407277 11.7736L1.51228 12.8856C1.81828 13.1924 2.21353 13.3978 2.65269 13.373C3.77682 13.3092 6.19436 12.8006 9.01494 9.96448C12.0055 6.95618 12.1245 4.13348 12.0169 2.9796C11.9829 2.6141 11.7973 2.29677 11.5423 2.04106L10.5421 1.03523C9.86707 0.355227 8.70894 0.546477 8.23649 1.41631L7.50053 2.76923C7.19099 3.34014 7.28165 4.03431 7.72507 4.48056Z" fill="#7C7C7C"/>
</svg>
