<svg width="17" height="17" viewBox="0 0 17 17" fill="none" xmlns="http://www.w3.org/2000/svg">
<path d="M14.1667 2.83325H2.83341C2.05425 2.83325 1.42383 3.47075 1.42383 4.24992L1.41675 12.7499C1.41675 13.5291 2.05425 14.1666 2.83341 14.1666H14.1667C14.9459 14.1666 15.5834 13.5291 15.5834 12.7499V4.24992C15.5834 3.47075 14.9459 2.83325 14.1667 2.83325ZM13.8834 5.84367L8.8755 8.9745C8.64883 9.11617 8.35133 9.11617 8.12467 8.9745L3.11675 5.84367C3.04572 5.8038 2.98352 5.74993 2.93392 5.68532C2.88431 5.62072 2.84833 5.54672 2.82816 5.46781C2.80798 5.38889 2.80402 5.30671 2.81653 5.22622C2.82903 5.14573 2.85774 5.06862 2.90091 4.99955C2.94408 4.93048 3.00081 4.87088 3.06768 4.82437C3.13455 4.77786 3.21016 4.74541 3.28993 4.72896C3.36971 4.71252 3.45199 4.71244 3.5318 4.72872C3.61161 4.74499 3.68728 4.7773 3.75425 4.82367L8.50008 7.79158L13.2459 4.82367C13.3129 4.7773 13.3886 4.74499 13.4684 4.72872C13.5482 4.71244 13.6305 4.71252 13.7102 4.72896C13.79 4.74541 13.8656 4.77786 13.9325 4.82437C13.9994 4.87088 14.0561 4.93048 14.0993 4.99955C14.1424 5.06862 14.1711 5.14573 14.1836 5.22622C14.1961 5.30671 14.1922 5.38889 14.172 5.46781C14.1518 5.54672 14.1158 5.62072 14.0662 5.68532C14.0166 5.74993 13.9544 5.8038 13.8834 5.84367Z" fill="#7C7C7C"/>
</svg>
