<svg width="20" height="20" viewBox="0 0 21 20" fill="none" xmlns="http://www.w3.org/2000/svg">
<path d="M10.2501 1.66675C9.15573 1.66675 8.0721 1.8823 7.06105 2.30109C6.05001 2.71987 5.13135 3.3337 4.35752 4.10752C2.79472 5.67033 1.91675 7.78994 1.91675 10.0001C1.91675 13.6834 4.30841 16.8084 7.61675 17.9167C8.03341 17.9834 8.16675 17.7251 8.16675 17.5001V16.0917C5.85841 16.5917 5.36675 14.9751 5.36675 14.9751C4.98341 14.0084 4.44175 13.7501 4.44175 13.7501C3.68341 13.2334 4.50008 13.2501 4.50008 13.2501C5.33341 13.3084 5.77508 14.1084 5.77508 14.1084C6.50008 15.3751 7.72508 15.0001 8.20008 14.8001C8.27508 14.2584 8.49175 13.8917 8.72508 13.6834C6.87508 13.4751 4.93341 12.7584 4.93341 9.58342C4.93341 8.65841 5.25008 7.91675 5.79175 7.32508C5.70841 7.11675 5.41675 6.25008 5.87508 5.12508C5.87508 5.12508 6.57508 4.90008 8.16675 5.97508C8.82508 5.79175 9.54175 5.70008 10.2501 5.70008C10.9584 5.70008 11.6751 5.79175 12.3334 5.97508C13.9251 4.90008 14.6251 5.12508 14.6251 5.12508C15.0834 6.25008 14.7917 7.11675 14.7084 7.32508C15.2501 7.91675 15.5667 8.65841 15.5667 9.58342C15.5667 12.7667 13.6167 13.4667 11.7584 13.6751C12.0584 13.9334 12.3334 14.4417 12.3334 15.2167V17.5001C12.3334 17.7251 12.4667 17.9917 12.8917 17.9167C16.2001 16.8001 18.5834 13.6834 18.5834 10.0001C18.5834 8.90573 18.3679 7.8221 17.9491 6.81105C17.5303 5.80001 16.9165 4.88135 16.1426 4.10752C15.3688 3.3337 14.4502 2.71987 13.4391 2.30109C12.4281 1.8823 11.3444 1.66675 10.2501 1.66675Z" fill="#7C7C7C"/>
</svg>
