<svg width="13" height="12" viewBox="0 0 13 12" fill="none" xmlns="http://www.w3.org/2000/svg">
<path d="M6.86343 1.8435C6.90854 1.79577 6.9438 1.73961 6.96721 1.67825C6.99062 1.61689 7.00171 1.55151 6.99985 1.48586C6.99799 1.42021 6.98322 1.35557 6.95639 1.29562C6.92955 1.23568 6.89116 1.18161 6.84343 1.1365C6.79569 1.09139 6.73954 1.05613 6.67817 1.03272C6.61681 1.00931 6.55144 0.998221 6.48579 1.00008C6.42013 1.00194 6.35549 1.01671 6.29555 1.04354C6.23561 1.07038 6.18154 1.10877 6.13643 1.1565L1.88643 5.6565C1.79866 5.74934 1.74976 5.87225 1.74976 6C1.74976 6.12776 1.79866 6.25067 1.88643 6.3435L6.13643 10.844C6.18124 10.8928 6.2353 10.9322 6.29546 10.9599C6.35562 10.9876 6.42069 11.0031 6.48689 11.0054C6.55309 11.0078 6.61909 10.997 6.68107 10.9736C6.74305 10.9502 6.79977 10.9148 6.84793 10.8693C6.89609 10.8238 6.93473 10.7692 6.96161 10.7087C6.9885 10.6481 7.00308 10.5829 7.00452 10.5166C7.00597 10.4504 6.99424 10.3846 6.97001 10.3229C6.94579 10.2613 6.90956 10.205 6.86343 10.1575L2.93743 6L6.86343 1.8435Z" fill="#F3F2F4"/>
</svg>
