<svg width="58" height="12" viewBox="0 0 58 12" fill="none" xmlns="http://www.w3.org/2000/svg">
<g clip-path="url(#clip0_241_420)">
<mask id="mask0_241_420" style="mask-type:luminance" maskUnits="userSpaceOnUse" x="0" y="0" width="59" height="12">
<path d="M58.0001 0.5H0.0407715V11.75H58.0001V0.5Z" fill="white"/>
</mask>
<g mask="url(#mask0_241_420)">
<path d="M46.9512 11.7394H49.9311C50.2992 11.7452 50.6568 11.6128 50.9363 11.3671C51.2075 11.1204 51.393 10.79 51.4651 10.4256L51.6259 9.56924H47.4124L46.9512 11.7394Z" fill="#454546"/>
<path d="M5.35267 2.67025L3.87051 9.57453H0.496817L0.0407715 11.75H3.2279C3.90246 11.7499 4.55752 11.5177 5.08833 11.0905C5.60723 10.665 5.96473 10.0666 6.09891 9.39898L7.48775 2.67557L5.35267 2.67025Z" fill="#454546"/>
<path d="M57.9999 0.5H55.8699L54.2427 8.25533C54.8487 8.20803 55.426 7.97033 55.8959 7.57447C56.3932 7.14964 56.7367 6.56492 56.87 5.91491L57.9999 0.5Z" fill="#454546"/>
<path d="M43.9351 5.91491L45.0752 0.5H42.9349L41.3025 8.25533C41.9075 8.20747 42.4841 7.97188 42.9556 7.57977C43.4555 7.15391 43.8006 6.56727 43.9351 5.91491Z" fill="#454546"/>
<path d="M10.3744 2.66505C9.89936 2.66313 9.4381 2.82841 9.06749 3.13332C8.69684 3.43823 8.43926 3.86433 8.33769 4.34058L7.90754 6.34592C7.85903 6.57945 7.86182 6.82114 7.91576 7.0534C7.96969 7.28572 8.07341 7.50275 8.21932 7.6887C8.36528 7.87465 8.54978 8.02489 8.7594 8.12843C8.96903 8.23203 9.19851 8.28631 9.43115 8.28739H10.5868L10.5764 8.27675H11.0636L11.5041 6.13315H10.079L10.3484 4.83526H12.4525L11.4575 9.56398H7.21313L6.75708 11.7395H10.8615C11.5507 11.7076 12.1519 11.4789 12.6235 11.0906C13.0951 10.7023 13.4423 10.1491 13.6133 9.46822L15.0592 2.65973H10.3744V2.66505Z" fill="#454546"/>
<path d="M34.4463 4.80861H36.5606L37.0426 2.67031H35.633C35.4243 2.66801 35.2213 2.74146 35.0602 2.8777C34.899 3.01394 34.7899 3.20423 34.752 3.41499L34.4463 4.80861Z" fill="#FB8D04"/>
<path d="M33.4252 9.569H37.6695L39.1206 2.66476H41.292L39.898 9.32436C39.759 9.9762 39.4176 10.5641 38.9251 10.9997C38.4325 11.4352 37.8155 11.6947 37.1668 11.7392H30.8289L32.2799 4.83497H34.4306L33.4252 9.569Z" fill="#454546"/>
<path d="M22.6978 2.66476L21.9567 6.13283H17.6762L18.4069 2.66476H16.2769L14.375 11.7339C14.7373 11.7034 15.0916 11.608 15.4218 11.452C15.8524 11.2535 16.2294 10.9505 16.5205 10.569C16.7256 10.2904 16.8689 9.96903 16.9402 9.62754L17.2253 8.27112H21.226C21.9134 8.27703 22.5829 8.04673 23.1279 7.61689C23.6598 7.19553 24.0288 6.59431 24.1696 5.92006V5.90942L24.8433 2.67008L22.6978 2.66476Z" fill="#454546"/>
<path d="M26.0249 2.67025L25.3098 6.13301H24.123L23.667 8.27665H24.6102C25.3253 8.27131 25.9783 8.03726 26.481 7.62237C27.0022 7.19586 27.3615 6.59553 27.4967 5.92559L27.5123 5.85111L28.1808 2.67025H26.0249Z" fill="#454546"/>
<path d="M29.3831 2.67025L28.668 6.13301H27.4812L27.0251 8.27665H27.9684C28.6835 8.27131 29.3365 8.03726 29.8392 7.62237C30.3604 7.19586 30.7197 6.59553 30.8549 5.92559L30.8705 5.85111L31.539 2.67025H29.3831Z" fill="#454546"/>
<path d="M52.0871 2.67557L51.3664 6.15429L47.2105 6.13836L47.9412 2.67025H45.8368L44.3496 9.57453H41.0278L40.5769 11.75H43.8314C44.5207 11.649 45.07 11.4202 45.5001 11.0745C45.9304 10.7288 46.2464 10.2766 46.4588 9.71281L46.7698 8.27131L50.6307 8.28729C52.004 8.27131 53.1233 7.40961 53.517 6.17558L54.2322 2.67557H52.0871Z" fill="#454546"/>
</g>
</g>
<defs>
<clipPath id="clip0_241_420">
<rect width="58" height="11" fill="white" transform="translate(0 0.5)"/>
</clipPath>
</defs>
</svg>
