<svg width="21" height="21" viewBox="0 0 21 21" fill="none" xmlns="http://www.w3.org/2000/svg">
<path d="M2.57495 10.5001C2.57495 15.1026 6.30578 18.8334 10.9083 18.8334C15.5108 18.8334 19.2416 15.1026 19.2416 10.5001C19.2416 5.89758 15.5108 2.16675 10.9083 2.16675C6.30578 2.16675 2.57495 5.89758 2.57495 10.5001Z" stroke="#F3F2F4" stroke-width="0.75" stroke-linecap="round" stroke-linejoin="round"/>
<path d="M11.7415 2.2085C11.7415 2.2085 14.2415 5.50016 14.2415 10.5002C14.2415 15.5002 11.7415 18.7918 11.7415 18.7918M10.0749 18.7918C10.0749 18.7918 7.57485 15.5002 7.57485 10.5002C7.57485 5.50016 10.0749 2.2085 10.0749 2.2085M3.09985 13.4168H18.7165M3.09985 7.5835H18.7165" stroke="#F3F2F4" stroke-width="0.75" stroke-linecap="round" stroke-linejoin="round"/>
</svg>
