<svg width="21" height="20" viewBox="0 0 21 20" fill="none" xmlns="http://www.w3.org/2000/svg">
<path d="M16.2498 2.5C16.6919 2.5 17.1158 2.67559 17.4283 2.98816C17.7409 3.30072 17.9165 3.72464 17.9165 4.16667V15.8333C17.9165 16.2754 17.7409 16.6993 17.4283 17.0118C17.1158 17.3244 16.6919 17.5 16.2498 17.5H4.58317C4.14114 17.5 3.71722 17.3244 3.40466 17.0118C3.0921 16.6993 2.9165 16.2754 2.9165 15.8333V4.16667C2.9165 3.72464 3.0921 3.30072 3.40466 2.98816C3.71722 2.67559 4.14114 2.5 4.58317 2.5H16.2498ZM15.8332 15.4167V11C15.8332 10.2795 15.547 9.5885 15.0375 9.07903C14.528 8.56955 13.837 8.28333 13.1165 8.28333C12.4082 8.28333 11.5832 8.71667 11.1832 9.36667V8.44167H8.85817V15.4167H11.1832V11.3083C11.1832 10.6667 11.6998 10.1417 12.3415 10.1417C12.6509 10.1417 12.9477 10.2646 13.1665 10.4834C13.3853 10.7022 13.5082 10.9989 13.5082 11.3083V15.4167H15.8332ZM6.14984 7.13333C6.52114 7.13333 6.87724 6.98583 7.13979 6.72328C7.40234 6.46073 7.54984 6.10464 7.54984 5.73333C7.54984 4.95833 6.92484 4.325 6.14984 4.325C5.77632 4.325 5.41811 4.47338 5.154 4.73749C4.88988 5.0016 4.7415 5.35982 4.7415 5.73333C4.7415 6.50833 5.37484 7.13333 6.14984 7.13333ZM7.30817 15.4167V8.44167H4.99984V15.4167H7.30817Z" fill="#7C7C7C"/>
</svg>
