<svg width="17" height="18" viewBox="0 0 17 18" fill="none" xmlns="http://www.w3.org/2000/svg">
<path d="M8.50008 8.64591C8.03043 8.64591 7.58001 8.45934 7.24791 8.12725C6.91582 7.79515 6.72925 7.34474 6.72925 6.87508C6.72925 6.40543 6.91582 5.95501 7.24791 5.62291C7.58001 5.29082 8.03043 5.10425 8.50008 5.10425C8.96974 5.10425 9.42015 5.29082 9.75225 5.62291C10.0843 5.95501 10.2709 6.40543 10.2709 6.87508C10.2709 7.10763 10.2251 7.3379 10.1361 7.55275C10.0471 7.7676 9.91669 7.96281 9.75225 8.12725C9.58781 8.29169 9.3926 8.42213 9.17775 8.51112C8.9629 8.60011 8.73263 8.64591 8.50008 8.64591ZM8.50008 1.91675C7.18505 1.91675 5.92388 2.43914 4.99401 3.36901C4.06414 4.29888 3.54175 5.56005 3.54175 6.87508C3.54175 10.5938 8.50008 16.0834 8.50008 16.0834C8.50008 16.0834 13.4584 10.5938 13.4584 6.87508C13.4584 5.56005 12.936 4.29888 12.0062 3.36901C11.0763 2.43914 9.81511 1.91675 8.50008 1.91675Z" fill="#7C7C7C"/>
</svg>
