<svg width="17" height="17" viewBox="0 0 17 17" fill="none" xmlns="http://www.w3.org/2000/svg">
<path d="M14.6677 10.415C14.5861 9.84805 14.1484 9.40605 13.5848 9.2743C11.3944 8.7609 10.8453 7.4995 10.7526 6.1004C10.3642 6.02815 9.67312 5.94995 8.50012 5.94995C7.32712 5.94995 6.63607 6.02815 6.24762 6.1004C6.15497 7.4995 5.60587 8.7609 3.41542 9.2743C2.85187 9.4069 2.41412 9.84805 2.33252 10.415L1.91007 13.3407C1.76132 14.3709 2.51782 15.3 3.57012 15.3H13.4301C14.4816 15.3 15.2389 14.3709 15.0902 13.3407L14.6677 10.415ZM8.50012 13.1682C7.31437 13.1682 6.35302 12.2162 6.35302 11.0432C6.35302 9.87015 7.31437 8.91815 8.50012 8.91815C9.68587 8.91815 10.6472 9.87015 10.6472 11.0432C10.6472 12.2162 9.68502 13.1682 8.50012 13.1682ZM16.9576 5.09995C16.9372 3.82495 13.6919 1.7008 8.50012 1.69995C3.30747 1.7008 0.0621659 3.82495 0.0426159 5.09995C0.0230659 6.37495 0.060466 8.03415 2.19737 7.7579C4.69722 7.43405 4.54337 6.5611 4.54337 5.3133C4.54337 4.4429 6.57657 4.23295 8.50012 4.23295C10.4237 4.23295 12.456 4.4429 12.4569 5.3133C12.4569 6.5611 12.303 7.43405 14.8029 7.7579C16.9389 8.03415 16.9772 6.37495 16.9576 5.09995Z" fill="#7C7C7C"/>
</svg>
