<svg width="48" height="14" viewBox="0 0 48 14" fill="none" xmlns="http://www.w3.org/2000/svg">
<g clip-path="url(#clip0_241_415)">
<path fill-rule="evenodd" clip-rule="evenodd" d="M6.90552 1.64769C6.57432 2.30031 5.83032 2.61854 5.13486 2.41015C4.90126 2.34015 4.65806 2.30246 4.41166 2.30246C3.91139 2.30246 3.24472 2.597 3.24472 3.18715C3.24472 3.80423 3.98072 4.04331 4.45272 4.19785L5.14766 4.40785C6.60579 4.844 7.73112 5.58708 7.73112 7.30046C7.73112 8.35315 7.48046 9.43385 6.64739 10.15C5.82819 10.8522 4.73059 11.1467 3.67512 11.1467C2.36099 11.1467 1.07459 10.7008 0.00738809 9.94862C0.000454757 9.94323 -0.00221191 9.93354 0.00205476 9.92546L1.16099 7.72154C1.84205 8.32515 2.64739 8.81623 3.57805 8.81623C4.21699 8.81623 4.89699 8.49315 4.89699 7.74954C4.89699 6.97739 3.82819 6.71031 3.24472 6.54231C1.53592 6.05069 0.410588 5.60162 0.410588 3.55169C0.410588 1.40377 1.92525 0 4.02232 0C5.07245 0 6.35566 0.333846 7.28526 0.861539C7.29326 0.866923 7.29699 0.877154 7.29219 0.886308L6.90552 1.64823V1.64769ZM10.7626 4.59092C10.7685 4.59092 10.7749 4.58769 10.7781 4.58285C11.3605 3.71862 12.0677 3.42515 13.0506 3.42515C14.9669 3.42515 15.7311 4.64692 15.7311 6.41577V9.345C15.7311 10.185 15.0575 10.8662 14.2261 10.8662H13.2213C13.2111 10.8662 13.2031 10.8581 13.2031 10.8478V7.35646C13.2031 6.66831 13.3146 5.46108 12.0645 5.46108C11.0362 5.46108 10.745 6.23323 10.745 7.13192V9.345C10.745 10.185 10.0714 10.8662 9.23992 10.8662H8.23459C8.22499 10.8662 8.21699 10.8581 8.21699 10.8478V3.682C8.21699 3.67231 8.22499 3.66423 8.23459 3.66423H10.7269C10.737 3.66423 10.745 3.67231 10.745 3.682V4.57262C10.745 4.58285 10.7525 4.59092 10.7626 4.59092ZM18.8218 7.27192C18.8218 8.18462 19.4191 8.88677 20.4469 8.88677C21.4751 8.88677 22.0725 8.18462 22.0725 7.27192C22.0725 6.38777 21.4751 5.64362 20.4469 5.64362C19.4191 5.64362 18.8218 6.38777 18.8218 7.27192ZM23.0117 10.8662H22.0069C21.9967 10.8662 21.9893 10.8581 21.9893 10.8478V10.0843C21.9893 10.0735 21.9807 10.066 21.9711 10.066C21.9647 10.066 21.9589 10.0692 21.9557 10.0741C21.5098 10.7848 20.6383 11.1047 19.8085 11.1047C17.697 11.1047 16.2111 9.32185 16.2111 7.25792C16.2111 5.19454 17.6693 3.42515 19.7802 3.42515C20.5839 3.42515 21.4271 3.72238 21.9573 4.32923C21.9679 4.34162 21.9893 4.33462 21.9893 4.31738V3.682C21.9893 3.67231 21.9967 3.66423 22.0069 3.66423H24.4991C24.5087 3.66423 24.5167 3.67231 24.5167 3.682V9.345C24.5167 10.185 23.8431 10.8662 23.0117 10.8662ZM27.7343 7.27192C27.7343 8.18462 28.3317 8.88677 29.3594 8.88677C30.3871 8.88677 30.9845 8.18462 30.9845 7.27192C30.9845 6.38777 30.3871 5.64362 29.3594 5.64362C28.3311 5.64362 27.7343 6.38777 27.7343 7.27192ZM27.8357 4.47838C27.841 4.47838 27.8474 4.47515 27.8506 4.47031C28.3103 3.75954 29.1679 3.42569 29.9983 3.42569C32.1237 3.42569 33.5957 5.22254 33.5957 7.28646C33.5957 9.36385 32.1375 11.1047 30.0261 11.1047C29.2085 11.1047 28.3637 10.8112 27.8218 10.1828C27.8202 10.1812 27.8181 10.1823 27.8181 10.1845V12.3825C27.8181 13.2225 27.1439 13.9036 26.313 13.9036H25.2901V3.66423H27.8181V4.46008C27.8181 4.47085 27.8255 4.47838 27.8357 4.47838ZM36.5125 7.27192C36.5125 8.18462 37.1098 8.88677 38.1375 8.88677C39.1653 8.88677 39.7631 8.18462 39.7631 7.27192C39.7631 6.38777 39.1653 5.64362 38.1375 5.64362C37.1093 5.64362 36.5125 6.38777 36.5125 7.27192ZM36.6138 4.47838C36.6197 4.47838 36.6255 4.47515 36.6287 4.47031C37.0885 3.75954 37.9461 3.42569 38.7765 3.42569C40.9013 3.42569 42.3733 5.22254 42.3733 7.28646C42.3733 9.36385 40.9151 11.1047 38.8042 11.1047C38.0005 11.1047 37.1695 10.8215 36.6271 10.2141C36.6165 10.2017 36.5951 10.2092 36.5951 10.2259V12.3825C36.5951 13.2225 35.9221 13.9036 35.0911 13.9036H34.0853C34.0757 13.9036 34.0671 13.895 34.0671 13.8853V3.682C34.0671 3.67231 34.0757 3.66423 34.0853 3.66423H36.577C36.5877 3.66423 36.5951 3.67231 36.5951 3.682V4.46008C36.5951 4.47085 36.6031 4.47838 36.6127 4.47838M45.3317 0.281077L43.6186 6.93108H45.0426C45.7317 6.93108 46.3333 6.45938 46.5061 5.78469L47.9263 0.281077H45.3317ZM44.473 7.87123C45.3557 7.87123 46.0725 8.59546 46.0725 9.48769C46.0725 10.3799 45.3557 11.1042 44.4725 11.1042C43.5903 11.1042 42.8735 10.3799 42.8735 9.48769C42.8735 8.59546 43.5903 7.87123 44.473 7.87123Z" fill="#454546"/>
</g>
<defs>
<clipPath id="clip0_241_415">
<rect width="48" height="14" fill="white"/>
</clipPath>
</defs>
</svg>
